<svg width="647" height="488" viewBox="0 0 647 488" fill="none" xmlns="http://www.w3.org/2000/svg">
<path d="M44.28 238V224H45.76V236.72H53.6V238H44.28ZM60.4411 238.1C59.3478 238.1 58.3878 237.873 57.5611 237.42C56.7344 236.953 56.0878 236.32 55.6211 235.52C55.1544 234.707 54.9211 233.78 54.9211 232.74C54.9211 231.7 55.1411 230.78 55.5811 229.98C56.0344 229.18 56.6478 228.553 57.4211 228.1C58.2078 227.633 59.0878 227.4 60.0611 227.4C61.0478 227.4 61.9211 227.627 62.6811 228.08C63.4544 228.52 64.0611 229.147 64.5011 229.96C64.9411 230.76 65.1611 231.687 65.1611 232.74C65.1611 232.807 65.1544 232.88 65.1411 232.96C65.1411 233.027 65.1411 233.1 65.1411 233.18H56.0011V232.12H64.3811L63.8211 232.54C63.8211 231.78 63.6544 231.107 63.3211 230.52C63.0011 229.92 62.5611 229.453 62.0011 229.12C61.4411 228.787 60.7944 228.62 60.0611 228.62C59.3411 228.62 58.6944 228.787 58.1211 229.12C57.5478 229.453 57.1011 229.92 56.7811 230.52C56.4611 231.12 56.3011 231.807 56.3011 232.58V232.8C56.3011 233.6 56.4744 234.307 56.8211 234.92C57.1811 235.52 57.6744 235.993 58.3011 236.34C58.9411 236.673 59.6678 236.84 60.4811 236.84C61.1211 236.84 61.7144 236.727 62.2611 236.5C62.8211 236.273 63.3011 235.927 63.7011 235.46L64.5011 236.38C64.0344 236.94 63.4478 237.367 62.7411 237.66C62.0478 237.953 61.2811 238.1 60.4411 238.1ZM71.2514 238.1C70.3847 238.1 69.5647 237.98 68.7914 237.74C68.0181 237.487 67.4114 237.173 66.9714 236.8L67.6114 235.68C68.0381 236 68.5847 236.28 69.2514 236.52C69.9181 236.747 70.6181 236.86 71.3514 236.86C72.3514 236.86 73.0714 236.707 73.5114 236.4C73.9514 236.08 74.1714 235.66 74.1714 235.14C74.1714 234.753 74.0447 234.453 73.7914 234.24C73.5514 234.013 73.2314 233.847 72.8314 233.74C72.4314 233.62 71.9847 233.52 71.4914 233.44C70.9981 233.36 70.5047 233.267 70.0114 233.16C69.5314 233.053 69.0914 232.9 68.6914 232.7C68.2914 232.487 67.9647 232.2 67.7114 231.84C67.4714 231.48 67.3514 231 67.3514 230.4C67.3514 229.827 67.5114 229.313 67.8314 228.86C68.1514 228.407 68.6181 228.053 69.2314 227.8C69.8581 227.533 70.6181 227.4 71.5114 227.4C72.1914 227.4 72.8714 227.493 73.5514 227.68C74.2314 227.853 74.7914 228.087 75.2314 228.38L74.6114 229.52C74.1447 229.2 73.6447 228.973 73.1114 228.84C72.5781 228.693 72.0447 228.62 71.5114 228.62C70.5647 228.62 69.8647 228.787 69.4114 229.12C68.9714 229.44 68.7514 229.853 68.7514 230.36C68.7514 230.76 68.8714 231.073 69.1114 231.3C69.3647 231.527 69.6914 231.707 70.0914 231.84C70.5047 231.96 70.9514 232.06 71.4314 232.14C71.9247 232.22 72.4114 232.32 72.8914 232.44C73.3847 232.547 73.8314 232.7 74.2314 232.9C74.6447 233.087 74.9714 233.36 75.2114 233.72C75.4647 234.067 75.5914 234.527 75.5914 235.1C75.5914 235.713 75.4181 236.247 75.0714 236.7C74.7381 237.14 74.2447 237.487 73.5914 237.74C72.9514 237.98 72.1714 238.1 71.2514 238.1ZM89.6114 238.1C88.6914 238.1 87.8647 237.893 87.1314 237.48C86.3981 237.053 85.8181 236.44 85.3914 235.64C84.9647 234.84 84.7514 233.873 84.7514 232.74C84.7514 231.593 84.9647 230.627 85.3914 229.84C85.8314 229.04 86.4181 228.433 87.1514 228.02C87.8847 227.607 88.7047 227.4 89.6114 227.4C90.6114 227.4 91.5047 227.627 92.2914 228.08C93.0914 228.52 93.7181 229.14 94.1714 229.94C94.6247 230.74 94.8514 231.673 94.8514 232.74C94.8514 233.793 94.6247 234.727 94.1714 235.54C93.7181 236.34 93.0914 236.967 92.2914 237.42C91.5047 237.873 90.6114 238.1 89.6114 238.1ZM84.1914 238V223.16H85.6114V230.6L85.4114 232.72L85.5514 234.84V238H84.1914ZM89.5114 236.84C90.2581 236.84 90.9247 236.673 91.5114 236.34C92.0981 235.993 92.5647 235.513 92.9114 234.9C93.2581 234.273 93.4314 233.553 93.4314 232.74C93.4314 231.913 93.2581 231.193 92.9114 230.58C92.5647 229.967 92.0981 229.493 91.5114 229.16C90.9247 228.813 90.2581 228.64 89.5114 228.64C88.7647 228.64 88.0914 228.813 87.4914 229.16C86.9047 229.493 86.4381 229.967 86.0914 230.58C85.7581 231.193 85.5914 231.913 85.5914 232.74C85.5914 233.553 85.7581 234.273 86.0914 234.9C86.4381 235.513 86.9047 235.993 87.4914 236.34C88.0914 236.673 88.7647 236.84 89.5114 236.84ZM104.648 238V235.68L104.588 235.3V231.42C104.588 230.527 104.334 229.84 103.828 229.36C103.334 228.88 102.594 228.64 101.608 228.64C100.928 228.64 100.281 228.753 99.6675 228.98C99.0542 229.207 98.5342 229.507 98.1075 229.88L97.4675 228.82C98.0008 228.367 98.6408 228.02 99.3875 227.78C100.134 227.527 100.921 227.4 101.748 227.4C103.108 227.4 104.154 227.74 104.888 228.42C105.634 229.087 106.008 230.107 106.008 231.48V238H104.648ZM101.028 238.1C100.241 238.1 99.5542 237.973 98.9675 237.72C98.3942 237.453 97.9542 237.093 97.6475 236.64C97.3408 236.173 97.1875 235.64 97.1875 235.04C97.1875 234.493 97.3142 234 97.5675 233.56C97.8342 233.107 98.2608 232.747 98.8475 232.48C99.4475 232.2 100.248 232.06 101.248 232.06H104.868V233.12H101.288C100.274 233.12 99.5675 233.3 99.1675 233.66C98.7808 234.02 98.5875 234.467 98.5875 235C98.5875 235.6 98.8208 236.08 99.2875 236.44C99.7542 236.8 100.408 236.98 101.248 236.98C102.048 236.98 102.734 236.8 103.308 236.44C103.894 236.067 104.321 235.533 104.588 234.84L104.908 235.82C104.641 236.513 104.174 237.067 103.508 237.48C102.854 237.893 102.028 238.1 101.028 238.1ZM113.064 238.1C112.198 238.1 111.378 237.98 110.604 237.74C109.831 237.487 109.224 237.173 108.784 236.8L109.424 235.68C109.851 236 110.398 236.28 111.064 236.52C111.731 236.747 112.431 236.86 113.164 236.86C114.164 236.86 114.884 236.707 115.324 236.4C115.764 236.08 115.984 235.66 115.984 235.14C115.984 234.753 115.858 234.453 115.604 234.24C115.364 234.013 115.044 233.847 114.644 233.74C114.244 233.62 113.798 233.52 113.304 233.44C112.811 233.36 112.318 233.267 111.824 233.16C111.344 233.053 110.904 232.9 110.504 232.7C110.104 232.487 109.778 232.2 109.524 231.84C109.284 231.48 109.164 231 109.164 230.4C109.164 229.827 109.324 229.313 109.644 228.86C109.964 228.407 110.431 228.053 111.044 227.8C111.671 227.533 112.431 227.4 113.324 227.4C114.004 227.4 114.684 227.493 115.364 227.68C116.044 227.853 116.604 228.087 117.044 228.38L116.424 229.52C115.958 229.2 115.458 228.973 114.924 228.84C114.391 228.693 113.858 228.62 113.324 228.62C112.378 228.62 111.678 228.787 111.224 229.12C110.784 229.44 110.564 229.853 110.564 230.36C110.564 230.76 110.684 231.073 110.924 231.3C111.178 231.527 111.504 231.707 111.904 231.84C112.318 231.96 112.764 232.06 113.244 232.14C113.738 232.22 114.224 232.32 114.704 232.44C115.198 232.547 115.644 232.7 116.044 232.9C116.458 233.087 116.784 233.36 117.024 233.72C117.278 234.067 117.404 234.527 117.404 235.1C117.404 235.713 117.231 236.247 116.884 236.7C116.551 237.14 116.058 237.487 115.404 237.74C114.764 237.98 113.984 238.1 113.064 238.1ZM124.85 238.1C123.757 238.1 122.797 237.873 121.97 237.42C121.143 236.953 120.497 236.32 120.03 235.52C119.563 234.707 119.33 233.78 119.33 232.74C119.33 231.7 119.55 230.78 119.99 229.98C120.443 229.18 121.057 228.553 121.83 228.1C122.617 227.633 123.497 227.4 124.47 227.4C125.457 227.4 126.33 227.627 127.09 228.08C127.863 228.52 128.47 229.147 128.91 229.96C129.35 230.76 129.57 231.687 129.57 232.74C129.57 232.807 129.563 232.88 129.55 232.96C129.55 233.027 129.55 233.1 129.55 233.18H120.41V232.12H128.79L128.23 232.54C128.23 231.78 128.063 231.107 127.73 230.52C127.41 229.92 126.97 229.453 126.41 229.12C125.85 228.787 125.203 228.62 124.47 228.62C123.75 228.62 123.103 228.787 122.53 229.12C121.957 229.453 121.51 229.92 121.19 230.52C120.87 231.12 120.71 231.807 120.71 232.58V232.8C120.71 233.6 120.883 234.307 121.23 234.92C121.59 235.52 122.083 235.993 122.71 236.34C123.35 236.673 124.077 236.84 124.89 236.84C125.53 236.84 126.123 236.727 126.67 236.5C127.23 236.273 127.71 235.927 128.11 235.46L128.91 236.38C128.443 236.94 127.857 237.367 127.15 237.66C126.457 237.953 125.69 238.1 124.85 238.1ZM135.66 238.1C134.794 238.1 133.974 237.98 133.2 237.74C132.427 237.487 131.82 237.173 131.38 236.8L132.02 235.68C132.447 236 132.994 236.28 133.66 236.52C134.327 236.747 135.027 236.86 135.76 236.86C136.76 236.86 137.48 236.707 137.92 236.4C138.36 236.08 138.58 235.66 138.58 235.14C138.58 234.753 138.454 234.453 138.2 234.24C137.96 234.013 137.64 233.847 137.24 233.74C136.84 233.62 136.394 233.52 135.9 233.44C135.407 233.36 134.914 233.267 134.42 233.16C133.94 233.053 133.5 232.9 133.1 232.7C132.7 232.487 132.374 232.2 132.12 231.84C131.88 231.48 131.76 231 131.76 230.4C131.76 229.827 131.92 229.313 132.24 228.86C132.56 228.407 133.027 228.053 133.64 227.8C134.267 227.533 135.027 227.4 135.92 227.4C136.6 227.4 137.28 227.493 137.96 227.68C138.64 227.853 139.2 228.087 139.64 228.38L139.02 229.52C138.554 229.2 138.054 228.973 137.52 228.84C136.987 228.693 136.454 228.62 135.92 228.62C134.974 228.62 134.274 228.787 133.82 229.12C133.38 229.44 133.16 229.853 133.16 230.36C133.16 230.76 133.28 231.073 133.52 231.3C133.774 231.527 134.1 231.707 134.5 231.84C134.914 231.96 135.36 232.06 135.84 232.14C136.334 232.22 136.82 232.32 137.3 232.44C137.794 232.547 138.24 232.7 138.64 232.9C139.054 233.087 139.38 233.36 139.62 233.72C139.874 234.067 140 234.527 140 235.1C140 235.713 139.827 236.247 139.48 236.7C139.147 237.14 138.654 237.487 138 237.74C137.36 237.98 136.58 238.1 135.66 238.1Z" fill="black"/>
<path d="M462.28 3H463.76V15.72H471.6V17H462.28V3ZM477.856 6.4C479.23 6.4 480.283 6.74667 481.016 7.44C481.75 8.12 482.116 9.13333 482.116 10.48V17H480.756V15.36C480.436 15.9067 479.963 16.3333 479.336 16.64C478.723 16.9467 477.99 17.1 477.136 17.1C475.963 17.1 475.03 16.82 474.336 16.26C473.643 15.7 473.296 14.96 473.296 14.04C473.296 13.1467 473.616 12.4267 474.256 11.88C474.91 11.3333 475.943 11.06 477.356 11.06H480.696V10.42C480.696 9.51333 480.443 8.82667 479.936 8.36C479.43 7.88 478.69 7.64 477.716 7.64C477.05 7.64 476.41 7.75333 475.796 7.98C475.183 8.19333 474.656 8.49333 474.216 8.88L473.576 7.82C474.11 7.36667 474.75 7.02 475.496 6.78C476.243 6.52667 477.03 6.4 477.856 6.4ZM477.356 15.98C478.156 15.98 478.843 15.8 479.416 15.44C479.99 15.0667 480.416 14.5333 480.696 13.84V12.12H477.396C475.596 12.12 474.696 12.7467 474.696 14C474.696 14.6133 474.93 15.1 475.396 15.46C475.863 15.8067 476.516 15.98 477.356 15.98ZM494.788 17.1C493.934 17.1 493.114 16.98 492.328 16.74C491.554 16.4867 490.948 16.1733 490.508 15.8L491.148 14.68C491.588 15.0267 492.141 15.3133 492.808 15.54C493.474 15.7533 494.168 15.86 494.888 15.86C495.848 15.86 496.554 15.7133 497.008 15.42C497.474 15.1133 497.708 14.6867 497.708 14.14C497.708 13.7533 497.581 13.4533 497.328 13.24C497.074 13.0133 496.754 12.8467 496.368 12.74C495.981 12.62 495.468 12.5067 494.828 12.4C493.974 12.24 493.288 12.08 492.768 11.92C492.248 11.7467 491.801 11.46 491.428 11.06C491.068 10.66 490.888 10.1067 490.888 9.4C490.888 8.52 491.254 7.8 491.988 7.24C492.721 6.68 493.741 6.4 495.048 6.4C495.728 6.4 496.408 6.49333 497.088 6.68C497.768 6.85333 498.328 7.08667 498.768 7.38L498.148 8.52C497.281 7.92 496.248 7.62 495.048 7.62C494.141 7.62 493.454 7.78 492.988 8.1C492.534 8.42 492.308 8.84 492.308 9.36C492.308 9.76 492.434 10.08 492.688 10.32C492.954 10.56 493.281 10.74 493.668 10.86C494.054 10.9667 494.588 11.08 495.268 11.2C496.108 11.36 496.781 11.52 497.288 11.68C497.794 11.84 498.228 12.1133 498.588 12.5C498.948 12.8867 499.128 13.42 499.128 14.1C499.128 15.02 498.741 15.7533 497.968 16.3C497.208 16.8333 496.148 17.1 494.788 17.1ZM507.553 6.4C508.539 6.4 509.433 6.62667 510.233 7.08C511.033 7.52 511.659 8.14667 512.113 8.96C512.566 9.77333 512.793 10.7 512.793 11.74C512.793 12.7933 512.566 13.7267 512.113 14.54C511.659 15.3533 511.033 15.9867 510.233 16.44C509.446 16.88 508.553 17.1 507.553 17.1C506.699 17.1 505.926 16.9267 505.233 16.58C504.553 16.22 503.993 15.7 503.553 15.02V20.88H502.133V6.48H503.493V8.56C503.919 7.86667 504.479 7.33333 505.173 6.96C505.879 6.58667 506.673 6.4 507.553 6.4ZM507.453 15.84C508.186 15.84 508.853 15.6733 509.453 15.34C510.053 14.9933 510.519 14.5067 510.853 13.88C511.199 13.2533 511.373 12.54 511.373 11.74C511.373 10.94 511.199 10.2333 510.853 9.62C510.519 8.99333 510.053 8.50667 509.453 8.16C508.853 7.81333 508.186 7.64 507.453 7.64C506.706 7.64 506.033 7.81333 505.433 8.16C504.846 8.50667 504.379 8.99333 504.033 9.62C503.699 10.2333 503.533 10.94 503.533 11.74C503.533 12.54 503.699 13.2533 504.033 13.88C504.379 14.5067 504.846 14.9933 505.433 15.34C506.033 15.6733 506.706 15.84 507.453 15.84ZM525.228 12.18H516.428C516.508 13.2733 516.928 14.16 517.688 14.84C518.448 15.5067 519.408 15.84 520.568 15.84C521.221 15.84 521.821 15.7267 522.368 15.5C522.914 15.26 523.388 14.9133 523.788 14.46L524.588 15.38C524.121 15.94 523.534 16.3667 522.828 16.66C522.134 16.9533 521.368 17.1 520.528 17.1C519.448 17.1 518.488 16.8733 517.648 16.42C516.821 15.9533 516.174 15.3133 515.708 14.5C515.241 13.6867 515.008 12.7667 515.008 11.74C515.008 10.7133 515.228 9.79333 515.668 8.98C516.121 8.16667 516.734 7.53333 517.508 7.08C518.294 6.62667 519.174 6.4 520.148 6.4C521.121 6.4 521.994 6.62667 522.768 7.08C523.541 7.53333 524.148 8.16667 524.588 8.98C525.028 9.78 525.248 10.7 525.248 11.74L525.228 12.18ZM520.148 7.62C519.134 7.62 518.281 7.94667 517.588 8.6C516.908 9.24 516.521 10.08 516.428 11.12H523.888C523.794 10.08 523.401 9.24 522.708 8.6C522.028 7.94667 521.174 7.62 520.148 7.62ZM521.588 2.36H523.488L520.248 4.84H518.848L521.588 2.36ZM532.878 17.1C531.838 17.1 530.904 16.8733 530.078 16.42C529.264 15.9667 528.624 15.3333 528.158 14.52C527.691 13.6933 527.458 12.7667 527.458 11.74C527.458 10.7133 527.691 9.79333 528.158 8.98C528.624 8.16667 529.264 7.53333 530.078 7.08C530.904 6.62667 531.838 6.4 532.878 6.4C533.784 6.4 534.591 6.58 535.298 6.94C536.018 7.28667 536.584 7.8 536.998 8.48L535.938 9.2C535.591 8.68 535.151 8.29333 534.618 8.04C534.084 7.77333 533.504 7.64 532.878 7.64C532.118 7.64 531.431 7.81333 530.818 8.16C530.218 8.49333 529.744 8.97333 529.398 9.6C529.064 10.2267 528.898 10.94 528.898 11.74C528.898 12.5533 529.064 13.2733 529.398 13.9C529.744 14.5133 530.218 14.9933 530.818 15.34C531.431 15.6733 532.118 15.84 532.878 15.84C533.504 15.84 534.084 15.7133 534.618 15.46C535.151 15.2067 535.591 14.82 535.938 14.3L536.998 15.02C536.584 15.7 536.018 16.22 535.298 16.58C534.578 16.9267 533.771 17.1 532.878 17.1ZM540.167 6.48H541.587V17H540.167V6.48ZM540.887 4.18C540.594 4.18 540.347 4.08 540.147 3.88C539.947 3.68 539.847 3.44 539.847 3.16C539.847 2.89333 539.947 2.66 540.147 2.46C540.347 2.26 540.594 2.16 540.887 2.16C541.181 2.16 541.427 2.26 541.627 2.46C541.827 2.64667 541.927 2.87333 541.927 3.14C541.927 3.43333 541.827 3.68 541.627 3.88C541.427 4.08 541.181 4.18 540.887 4.18ZM549.598 6.4C550.972 6.4 552.025 6.74667 552.758 7.44C553.492 8.12 553.858 9.13333 553.858 10.48V17H552.498V15.36C552.178 15.9067 551.705 16.3333 551.078 16.64C550.465 16.9467 549.732 17.1 548.878 17.1C547.705 17.1 546.772 16.82 546.078 16.26C545.385 15.7 545.038 14.96 545.038 14.04C545.038 13.1467 545.358 12.4267 545.998 11.88C546.652 11.3333 547.685 11.06 549.098 11.06H552.438V10.42C552.438 9.51333 552.185 8.82667 551.678 8.36C551.172 7.88 550.432 7.64 549.458 7.64C548.792 7.64 548.152 7.75333 547.538 7.98C546.925 8.19333 546.398 8.49333 545.958 8.88L545.318 7.82C545.852 7.36667 546.492 7.02 547.238 6.78C547.985 6.52667 548.772 6.4 549.598 6.4ZM549.098 15.98C549.898 15.98 550.585 15.8 551.158 15.44C551.732 15.0667 552.158 14.5333 552.438 13.84V12.12H549.138C547.338 12.12 546.438 12.7467 546.438 14C546.438 14.6133 546.672 15.1 547.138 15.46C547.605 15.8067 548.258 15.98 549.098 15.98ZM558.095 2.16H559.515V17H558.095V2.16ZM563.846 6.48H565.266V17H563.846V6.48ZM564.566 4.18C564.273 4.18 564.026 4.08 563.826 3.88C563.626 3.68 563.526 3.44 563.526 3.16C563.526 2.89333 563.626 2.66 563.826 2.46C564.026 2.26 564.273 2.16 564.566 2.16C564.86 2.16 565.106 2.26 565.306 2.46C565.506 2.64667 565.606 2.87333 565.606 3.14C565.606 3.43333 565.506 3.68 565.306 3.88C565.106 4.08 564.86 4.18 564.566 4.18ZM572.418 17.1C571.564 17.1 570.744 16.98 569.958 16.74C569.184 16.4867 568.578 16.1733 568.138 15.8L568.778 14.68C569.218 15.0267 569.771 15.3133 570.438 15.54C571.104 15.7533 571.798 15.86 572.518 15.86C573.478 15.86 574.184 15.7133 574.638 15.42C575.104 15.1133 575.338 14.6867 575.338 14.14C575.338 13.7533 575.211 13.4533 574.958 13.24C574.704 13.0133 574.384 12.8467 573.998 12.74C573.611 12.62 573.098 12.5067 572.458 12.4C571.604 12.24 570.918 12.08 570.398 11.92C569.878 11.7467 569.431 11.46 569.058 11.06C568.698 10.66 568.518 10.1067 568.518 9.4C568.518 8.52 568.884 7.8 569.618 7.24C570.351 6.68 571.371 6.4 572.678 6.4C573.358 6.4 574.038 6.49333 574.718 6.68C575.398 6.85333 575.958 7.08667 576.398 7.38L575.778 8.52C574.911 7.92 573.878 7.62 572.678 7.62C571.771 7.62 571.084 7.78 570.618 8.1C570.164 8.42 569.938 8.84 569.938 9.36C569.938 9.76 570.064 10.08 570.318 10.32C570.584 10.56 570.911 10.74 571.298 10.86C571.684 10.9667 572.218 11.08 572.898 11.2C573.738 11.36 574.411 11.52 574.918 11.68C575.424 11.84 575.858 12.1133 576.218 12.5C576.578 12.8867 576.758 13.42 576.758 14.1C576.758 15.02 576.371 15.7533 575.598 16.3C574.838 16.8333 573.778 17.1 572.418 17.1ZM583.443 6.4C584.816 6.4 585.869 6.74667 586.603 7.44C587.336 8.12 587.703 9.13333 587.703 10.48V17H586.343V15.36C586.023 15.9067 585.549 16.3333 584.923 16.64C584.309 16.9467 583.576 17.1 582.723 17.1C581.549 17.1 580.616 16.82 579.923 16.26C579.229 15.7 578.883 14.96 578.883 14.04C578.883 13.1467 579.203 12.4267 579.843 11.88C580.496 11.3333 581.529 11.06 582.943 11.06H586.283V10.42C586.283 9.51333 586.029 8.82667 585.523 8.36C585.016 7.88 584.276 7.64 583.303 7.64C582.636 7.64 581.996 7.75333 581.383 7.98C580.769 8.19333 580.243 8.49333 579.803 8.88L579.163 7.82C579.696 7.36667 580.336 7.02 581.083 6.78C581.829 6.52667 582.616 6.4 583.443 6.4ZM582.943 15.98C583.743 15.98 584.429 15.8 585.003 15.44C585.576 15.0667 586.003 14.5333 586.283 13.84V12.12H582.983C581.183 12.12 580.283 12.7467 580.283 14C580.283 14.6133 580.516 15.1 580.983 15.46C581.449 15.8067 582.103 15.98 582.943 15.98ZM597.48 16.36C597.213 16.6 596.88 16.7867 596.48 16.92C596.093 17.04 595.686 17.1 595.26 17.1C594.273 17.1 593.513 16.8333 592.98 16.3C592.446 15.7667 592.18 15.0133 592.18 14.04V7.68H590.3V6.48H592.18V4.18H593.6V6.48H596.8V7.68H593.6V13.96C593.6 14.5867 593.753 15.0667 594.06 15.4C594.38 15.72 594.833 15.88 595.42 15.88C595.713 15.88 595.993 15.8333 596.26 15.74C596.54 15.6467 596.78 15.5133 596.98 15.34L597.48 16.36ZM600.445 6.48H601.865V17H600.445V6.48ZM601.165 4.18C600.871 4.18 600.625 4.08 600.425 3.88C600.225 3.68 600.125 3.44 600.125 3.16C600.125 2.89333 600.225 2.66 600.425 2.46C600.625 2.26 600.871 2.16 601.165 2.16C601.458 2.16 601.705 2.26 601.905 2.46C602.105 2.64667 602.205 2.87333 602.205 3.14C602.205 3.43333 602.105 3.68 601.905 3.88C601.705 4.08 601.458 4.18 601.165 4.18ZM610.496 17.1C609.482 17.1 608.569 16.8733 607.756 16.42C606.942 15.9533 606.302 15.3133 605.836 14.5C605.369 13.6867 605.136 12.7667 605.136 11.74C605.136 10.7133 605.369 9.79333 605.836 8.98C606.302 8.16667 606.942 7.53333 607.756 7.08C608.569 6.62667 609.482 6.4 610.496 6.4C611.509 6.4 612.422 6.62667 613.236 7.08C614.049 7.53333 614.682 8.16667 615.136 8.98C615.602 9.79333 615.836 10.7133 615.836 11.74C615.836 12.7667 615.602 13.6867 615.136 14.5C614.682 15.3133 614.049 15.9533 613.236 16.42C612.422 16.8733 611.509 17.1 610.496 17.1ZM610.496 15.84C611.242 15.84 611.909 15.6733 612.496 15.34C613.096 14.9933 613.562 14.5067 613.896 13.88C614.229 13.2533 614.396 12.54 614.396 11.74C614.396 10.94 614.229 10.2267 613.896 9.6C613.562 8.97333 613.096 8.49333 612.496 8.16C611.909 7.81333 611.242 7.64 610.496 7.64C609.749 7.64 609.076 7.81333 608.476 8.16C607.889 8.49333 607.422 8.97333 607.076 9.6C606.742 10.2267 606.576 10.94 606.576 11.74C606.576 12.54 606.742 13.2533 607.076 13.88C607.422 14.5067 607.889 14.9933 608.476 15.34C609.076 15.6733 609.749 15.84 610.496 15.84ZM624.475 6.4C625.795 6.4 626.841 6.78667 627.615 7.56C628.401 8.32 628.795 9.43333 628.795 10.9V17H627.375V11.04C627.375 9.94667 627.101 9.11333 626.555 8.54C626.008 7.96667 625.228 7.68 624.215 7.68C623.081 7.68 622.181 8.02 621.515 8.7C620.861 9.36667 620.535 10.2933 620.535 11.48V17H619.115V6.48H620.475V8.42C620.861 7.78 621.395 7.28667 622.075 6.94C622.768 6.58 623.568 6.4 624.475 6.4Z" fill="black"/>
<path d="M204.28 114H205.76V126.72H213.6V128H204.28V114ZM215.379 113.06C215.686 113.06 215.939 113.167 216.139 113.38C216.339 113.58 216.439 113.833 216.439 114.14C216.439 114.3 216.413 114.473 216.359 114.66C216.319 114.833 216.259 115.04 216.179 115.28L215.319 118.04H214.359L215.059 115.16C214.833 115.093 214.653 114.973 214.519 114.8C214.386 114.613 214.319 114.393 214.319 114.14C214.319 113.82 214.419 113.56 214.619 113.36C214.819 113.16 215.073 113.06 215.379 113.06ZM223.322 117.4C224.696 117.4 225.749 117.747 226.482 118.44C227.216 119.12 227.582 120.133 227.582 121.48V128H226.222V126.36C225.902 126.907 225.429 127.333 224.802 127.64C224.189 127.947 223.456 128.1 222.602 128.1C221.429 128.1 220.496 127.82 219.802 127.26C219.109 126.7 218.762 125.96 218.762 125.04C218.762 124.147 219.082 123.427 219.722 122.88C220.376 122.333 221.409 122.06 222.822 122.06H226.162V121.42C226.162 120.513 225.909 119.827 225.402 119.36C224.896 118.88 224.156 118.64 223.182 118.64C222.516 118.64 221.876 118.753 221.262 118.98C220.649 119.193 220.122 119.493 219.682 119.88L219.042 118.82C219.576 118.367 220.216 118.02 220.962 117.78C221.709 117.527 222.496 117.4 223.322 117.4ZM222.822 126.98C223.622 126.98 224.309 126.8 224.882 126.44C225.456 126.067 225.882 125.533 226.162 124.84V123.12H222.862C221.062 123.12 220.162 123.747 220.162 125C220.162 125.613 220.396 126.1 220.862 126.46C221.329 126.807 221.982 126.98 222.822 126.98ZM237.239 117.4C238.226 117.4 239.119 117.627 239.919 118.08C240.719 118.52 241.346 119.147 241.799 119.96C242.253 120.773 242.479 121.7 242.479 122.74C242.479 123.793 242.253 124.727 241.799 125.54C241.346 126.353 240.719 126.987 239.919 127.44C239.133 127.88 238.239 128.1 237.239 128.1C236.386 128.1 235.613 127.927 234.919 127.58C234.239 127.22 233.679 126.7 233.239 126.02V131.88H231.819V117.48H233.179V119.56C233.606 118.867 234.166 118.333 234.859 117.96C235.566 117.587 236.359 117.4 237.239 117.4ZM237.139 126.84C237.873 126.84 238.539 126.673 239.139 126.34C239.739 125.993 240.206 125.507 240.539 124.88C240.886 124.253 241.059 123.54 241.059 122.74C241.059 121.94 240.886 121.233 240.539 120.62C240.206 119.993 239.739 119.507 239.139 119.16C238.539 118.813 237.873 118.64 237.139 118.64C236.393 118.64 235.719 118.813 235.119 119.16C234.533 119.507 234.066 119.993 233.719 120.62C233.386 121.233 233.219 121.94 233.219 122.74C233.219 123.54 233.386 124.253 233.719 124.88C234.066 125.507 234.533 125.993 235.119 126.34C235.719 126.673 236.393 126.84 237.139 126.84ZM251.174 117.4C252.161 117.4 253.054 117.627 253.854 118.08C254.654 118.52 255.281 119.147 255.734 119.96C256.187 120.773 256.414 121.7 256.414 122.74C256.414 123.793 256.187 124.727 255.734 125.54C255.281 126.353 254.654 126.987 253.854 127.44C253.067 127.88 252.174 128.1 251.174 128.1C250.321 128.1 249.547 127.927 248.854 127.58C248.174 127.22 247.614 126.7 247.174 126.02V131.88H245.754V117.48H247.114V119.56C247.541 118.867 248.101 118.333 248.794 117.96C249.501 117.587 250.294 117.4 251.174 117.4ZM251.074 126.84C251.807 126.84 252.474 126.673 253.074 126.34C253.674 125.993 254.141 125.507 254.474 124.88C254.821 124.253 254.994 123.54 254.994 122.74C254.994 121.94 254.821 121.233 254.474 120.62C254.141 119.993 253.674 119.507 253.074 119.16C252.474 118.813 251.807 118.64 251.074 118.64C250.327 118.64 249.654 118.813 249.054 119.16C248.467 119.507 248.001 119.993 247.654 120.62C247.321 121.233 247.154 121.94 247.154 122.74C247.154 123.54 247.321 124.253 247.654 124.88C248.001 125.507 248.467 125.993 249.054 126.34C249.654 126.673 250.327 126.84 251.074 126.84ZM261.049 119.54C261.382 118.833 261.875 118.3 262.529 117.94C263.195 117.58 264.015 117.4 264.989 117.4V118.78L264.649 118.76C263.542 118.76 262.675 119.1 262.049 119.78C261.422 120.46 261.109 121.413 261.109 122.64V128H259.689V117.48H261.049V119.54ZM272.142 128.1C271.129 128.1 270.215 127.873 269.402 127.42C268.589 126.953 267.949 126.313 267.482 125.5C267.015 124.687 266.782 123.767 266.782 122.74C266.782 121.713 267.015 120.793 267.482 119.98C267.949 119.167 268.589 118.533 269.402 118.08C270.215 117.627 271.129 117.4 272.142 117.4C273.155 117.4 274.069 117.627 274.882 118.08C275.695 118.533 276.329 119.167 276.782 119.98C277.249 120.793 277.482 121.713 277.482 122.74C277.482 123.767 277.249 124.687 276.782 125.5C276.329 126.313 275.695 126.953 274.882 127.42C274.069 127.873 273.155 128.1 272.142 128.1ZM272.142 126.84C272.889 126.84 273.555 126.673 274.142 126.34C274.742 125.993 275.209 125.507 275.542 124.88C275.875 124.253 276.042 123.54 276.042 122.74C276.042 121.94 275.875 121.227 275.542 120.6C275.209 119.973 274.742 119.493 274.142 119.16C273.555 118.813 272.889 118.64 272.142 118.64C271.395 118.64 270.722 118.813 270.122 119.16C269.535 119.493 269.069 119.973 268.722 120.6C268.389 121.227 268.222 121.94 268.222 122.74C268.222 123.54 268.389 124.253 268.722 124.88C269.069 125.507 269.535 125.993 270.122 126.34C270.722 126.673 271.395 126.84 272.142 126.84ZM284.241 114.26C283.628 114.26 283.161 114.427 282.841 114.76C282.534 115.093 282.381 115.587 282.381 116.24V117.48H285.621V118.68H282.421V128H281.001V118.68H279.121V117.48H281.001V116.18C281.001 115.22 281.274 114.46 281.821 113.9C282.381 113.34 283.168 113.06 284.181 113.06C284.581 113.06 284.968 113.12 285.341 113.24C285.714 113.347 286.028 113.507 286.281 113.72L285.801 114.78C285.388 114.433 284.868 114.26 284.241 114.26ZM292.043 128.1C291.029 128.1 290.116 127.873 289.303 127.42C288.489 126.953 287.849 126.313 287.383 125.5C286.916 124.687 286.683 123.767 286.683 122.74C286.683 121.713 286.916 120.793 287.383 119.98C287.849 119.167 288.489 118.533 289.303 118.08C290.116 117.627 291.029 117.4 292.043 117.4C293.056 117.4 293.969 117.627 294.783 118.08C295.596 118.533 296.229 119.167 296.683 119.98C297.149 120.793 297.383 121.713 297.383 122.74C297.383 123.767 297.149 124.687 296.683 125.5C296.229 126.313 295.596 126.953 294.783 127.42C293.969 127.873 293.056 128.1 292.043 128.1ZM292.043 126.84C292.789 126.84 293.456 126.673 294.043 126.34C294.643 125.993 295.109 125.507 295.443 124.88C295.776 124.253 295.943 123.54 295.943 122.74C295.943 121.94 295.776 121.227 295.443 120.6C295.109 119.973 294.643 119.493 294.043 119.16C293.456 118.813 292.789 118.64 292.043 118.64C291.296 118.64 290.623 118.813 290.023 119.16C289.436 119.493 288.969 119.973 288.623 120.6C288.289 121.227 288.123 121.94 288.123 122.74C288.123 123.54 288.289 124.253 288.623 124.88C288.969 125.507 289.436 125.993 290.023 126.34C290.623 126.673 291.296 126.84 292.043 126.84ZM306.022 117.4C307.342 117.4 308.388 117.787 309.162 118.56C309.948 119.32 310.342 120.433 310.342 121.9V128H308.922V122.04C308.922 120.947 308.648 120.113 308.102 119.54C307.555 118.967 306.775 118.68 305.762 118.68C304.628 118.68 303.728 119.02 303.062 119.7C302.408 120.367 302.082 121.293 302.082 122.48V128H300.662V117.48H302.022V119.42C302.408 118.78 302.942 118.287 303.622 117.94C304.315 117.58 305.115 117.4 306.022 117.4ZM324.216 113.16V128H322.856V125.92C322.429 126.627 321.863 127.167 321.156 127.54C320.463 127.913 319.676 128.1 318.796 128.1C317.809 128.1 316.916 127.873 316.116 127.42C315.316 126.967 314.689 126.333 314.236 125.52C313.783 124.707 313.556 123.78 313.556 122.74C313.556 121.7 313.783 120.773 314.236 119.96C314.689 119.147 315.316 118.52 316.116 118.08C316.916 117.627 317.809 117.4 318.796 117.4C319.649 117.4 320.416 117.58 321.096 117.94C321.789 118.287 322.356 118.8 322.796 119.48V113.16H324.216ZM318.916 126.84C319.649 126.84 320.309 126.673 320.896 126.34C321.496 125.993 321.963 125.507 322.296 124.88C322.643 124.253 322.816 123.54 322.816 122.74C322.816 121.94 322.643 121.227 322.296 120.6C321.963 119.973 321.496 119.493 320.896 119.16C320.309 118.813 319.649 118.64 318.916 118.64C318.169 118.64 317.496 118.813 316.896 119.16C316.309 119.493 315.843 119.973 315.496 120.6C315.163 121.227 314.996 121.94 314.996 122.74C314.996 123.54 315.163 124.253 315.496 124.88C315.843 125.507 316.309 125.993 316.896 126.34C317.496 126.673 318.169 126.84 318.916 126.84ZM328.551 117.48H329.971V128H328.551V117.48ZM329.271 115.18C328.977 115.18 328.731 115.08 328.531 114.88C328.331 114.68 328.231 114.44 328.231 114.16C328.231 113.893 328.331 113.66 328.531 113.46C328.731 113.26 328.977 113.16 329.271 113.16C329.564 113.16 329.811 113.26 330.011 113.46C330.211 113.647 330.311 113.873 330.311 114.14C330.311 114.433 330.211 114.68 330.011 114.88C329.811 115.08 329.564 115.18 329.271 115.18ZM337.122 128.1C336.268 128.1 335.448 127.98 334.662 127.74C333.888 127.487 333.282 127.173 332.842 126.8L333.482 125.68C333.922 126.027 334.475 126.313 335.142 126.54C335.808 126.753 336.502 126.86 337.222 126.86C338.182 126.86 338.888 126.713 339.342 126.42C339.808 126.113 340.042 125.687 340.042 125.14C340.042 124.753 339.915 124.453 339.662 124.24C339.408 124.013 339.088 123.847 338.702 123.74C338.315 123.62 337.802 123.507 337.162 123.4C336.308 123.24 335.622 123.08 335.102 122.92C334.582 122.747 334.135 122.46 333.762 122.06C333.402 121.66 333.222 121.107 333.222 120.4C333.222 119.52 333.588 118.8 334.322 118.24C335.055 117.68 336.075 117.4 337.382 117.4C338.062 117.4 338.742 117.493 339.422 117.68C340.102 117.853 340.662 118.087 341.102 118.38L340.482 119.52C339.615 118.92 338.582 118.62 337.382 118.62C336.475 118.62 335.788 118.78 335.322 119.1C334.868 119.42 334.642 119.84 334.642 120.36C334.642 120.76 334.768 121.08 335.022 121.32C335.288 121.56 335.615 121.74 336.002 121.86C336.388 121.967 336.922 122.08 337.602 122.2C338.442 122.36 339.115 122.52 339.622 122.68C340.128 122.84 340.562 123.113 340.922 123.5C341.282 123.887 341.462 124.42 341.462 125.1C341.462 126.02 341.075 126.753 340.302 127.3C339.542 127.833 338.482 128.1 337.122 128.1ZM347.287 128.1C346.434 128.1 345.614 127.98 344.827 127.74C344.054 127.487 343.447 127.173 343.007 126.8L343.647 125.68C344.087 126.027 344.64 126.313 345.307 126.54C345.974 126.753 346.667 126.86 347.387 126.86C348.347 126.86 349.054 126.713 349.507 126.42C349.974 126.113 350.207 125.687 350.207 125.14C350.207 124.753 350.08 124.453 349.827 124.24C349.574 124.013 349.254 123.847 348.867 123.74C348.48 123.62 347.967 123.507 347.327 123.4C346.474 123.24 345.787 123.08 345.267 122.92C344.747 122.747 344.3 122.46 343.927 122.06C343.567 121.66 343.387 121.107 343.387 120.4C343.387 119.52 343.754 118.8 344.487 118.24C345.22 117.68 346.24 117.4 347.547 117.4C348.227 117.4 348.907 117.493 349.587 117.68C350.267 117.853 350.827 118.087 351.267 118.38L350.647 119.52C349.78 118.92 348.747 118.62 347.547 118.62C346.64 118.62 345.954 118.78 345.487 119.1C345.034 119.42 344.807 119.84 344.807 120.36C344.807 120.76 344.934 121.08 345.187 121.32C345.454 121.56 345.78 121.74 346.167 121.86C346.554 121.967 347.087 122.08 347.767 122.2C348.607 122.36 349.28 122.52 349.787 122.68C350.294 122.84 350.727 123.113 351.087 123.5C351.447 123.887 351.627 124.42 351.627 125.1C351.627 126.02 351.24 126.753 350.467 127.3C349.707 127.833 348.647 128.1 347.287 128.1ZM363.792 123.18H354.992C355.072 124.273 355.492 125.16 356.252 125.84C357.012 126.507 357.972 126.84 359.132 126.84C359.785 126.84 360.385 126.727 360.932 126.5C361.479 126.26 361.952 125.913 362.352 125.46L363.152 126.38C362.685 126.94 362.099 127.367 361.392 127.66C360.699 127.953 359.932 128.1 359.092 128.1C358.012 128.1 357.052 127.873 356.212 127.42C355.385 126.953 354.739 126.313 354.272 125.5C353.805 124.687 353.572 123.767 353.572 122.74C353.572 121.713 353.792 120.793 354.232 119.98C354.685 119.167 355.299 118.533 356.072 118.08C356.859 117.627 357.739 117.4 358.712 117.4C359.685 117.4 360.559 117.627 361.332 118.08C362.105 118.533 362.712 119.167 363.152 119.98C363.592 120.78 363.812 121.7 363.812 122.74L363.792 123.18ZM358.712 118.62C357.699 118.62 356.845 118.947 356.152 119.6C355.472 120.24 355.085 121.08 354.992 122.12H362.452C362.359 121.08 361.965 120.24 361.272 119.6C360.592 118.947 359.739 118.62 358.712 118.62ZM380.202 117.4C381.522 117.4 382.556 117.78 383.302 118.54C384.062 119.3 384.442 120.42 384.442 121.9V128H383.022V122.04C383.022 120.947 382.756 120.113 382.222 119.54C381.702 118.967 380.962 118.68 380.002 118.68C378.909 118.68 378.049 119.02 377.422 119.7C376.796 120.367 376.482 121.293 376.482 122.48V128H375.062V122.04C375.062 120.947 374.796 120.113 374.262 119.54C373.742 118.967 372.996 118.68 372.022 118.68C370.942 118.68 370.082 119.02 369.442 119.7C368.816 120.367 368.502 121.293 368.502 122.48V128H367.082V117.48H368.442V119.4C368.816 118.76 369.336 118.267 370.002 117.92C370.669 117.573 371.436 117.4 372.302 117.4C373.182 117.4 373.942 117.587 374.582 117.96C375.236 118.333 375.722 118.887 376.042 119.62C376.429 118.927 376.982 118.387 377.702 118C378.436 117.6 379.269 117.4 380.202 117.4ZM397.872 123.18H389.072C389.152 124.273 389.572 125.16 390.332 125.84C391.092 126.507 392.052 126.84 393.212 126.84C393.866 126.84 394.466 126.727 395.012 126.5C395.559 126.26 396.032 125.913 396.432 125.46L397.232 126.38C396.766 126.94 396.179 127.367 395.472 127.66C394.779 127.953 394.012 128.1 393.172 128.1C392.092 128.1 391.132 127.873 390.292 127.42C389.466 126.953 388.819 126.313 388.352 125.5C387.886 124.687 387.652 123.767 387.652 122.74C387.652 121.713 387.872 120.793 388.312 119.98C388.766 119.167 389.379 118.533 390.152 118.08C390.939 117.627 391.819 117.4 392.792 117.4C393.766 117.4 394.639 117.627 395.412 118.08C396.186 118.533 396.792 119.167 397.232 119.98C397.672 120.78 397.892 121.7 397.892 122.74L397.872 123.18ZM392.792 118.62C391.779 118.62 390.926 118.947 390.232 119.6C389.552 120.24 389.166 121.08 389.072 122.12H396.532C396.439 121.08 396.046 120.24 395.352 119.6C394.672 118.947 393.819 118.62 392.792 118.62ZM406.523 117.4C407.843 117.4 408.889 117.787 409.663 118.56C410.449 119.32 410.843 120.433 410.843 121.9V128H409.423V122.04C409.423 120.947 409.149 120.113 408.603 119.54C408.056 118.967 407.276 118.68 406.263 118.68C405.129 118.68 404.229 119.02 403.563 119.7C402.909 120.367 402.583 121.293 402.583 122.48V128H401.163V117.48H402.523V119.42C402.909 118.78 403.443 118.287 404.123 117.94C404.816 117.58 405.616 117.4 406.523 117.4ZM420.618 127.36C420.351 127.6 420.018 127.787 419.618 127.92C419.231 128.04 418.824 128.1 418.398 128.1C417.411 128.1 416.651 127.833 416.118 127.3C415.584 126.767 415.318 126.013 415.318 125.04V118.68H413.438V117.48H415.318V115.18H416.738V117.48H419.938V118.68H416.738V124.96C416.738 125.587 416.891 126.067 417.198 126.4C417.518 126.72 417.971 126.88 418.558 126.88C418.851 126.88 419.131 126.833 419.398 126.74C419.678 126.647 419.918 126.513 420.118 126.34L420.618 127.36Z" fill="black"/>
<rect y="246" width="183" height="242" fill="url(#paint0_linear_629_3729)"/>
<rect x="210" y="136" width="205" height="352" fill="url(#paint1_linear_629_3729)"/>
<rect x="442" y="25" width="205" height="463" fill="url(#paint2_linear_629_3729)"/>
<path d="M36.24 323V300.6H47.696C50.64 300.6 52.8373 301.144 54.288 302.232C55.7387 303.299 56.464 304.707 56.464 306.456C56.464 307.608 56.1547 308.621 55.536 309.496C54.9387 310.349 54.0853 311.032 52.976 311.544C51.888 312.035 50.5867 312.28 49.072 312.28L49.712 310.744C51.2907 310.744 52.6667 310.989 53.84 311.48C55.0133 311.949 55.92 312.643 56.56 313.56C57.2213 314.456 57.552 315.555 57.552 316.856C57.552 318.797 56.7627 320.312 55.184 321.4C53.6267 322.467 51.344 323 48.336 323H36.24ZM42.512 318.424H47.824C48.912 318.424 49.7333 318.243 50.288 317.88C50.864 317.496 51.152 316.92 51.152 316.152C51.152 315.384 50.864 314.819 50.288 314.456C49.7333 314.072 48.912 313.88 47.824 313.88H42.064V309.496H46.864C47.9307 309.496 48.7307 309.315 49.264 308.952C49.7973 308.589 50.064 308.045 50.064 307.32C50.064 306.595 49.7973 306.061 49.264 305.72C48.7307 305.357 47.9307 305.176 46.864 305.176H42.512V318.424ZM58.5257 323L68.4137 300.6H74.6537L84.5737 323H77.9818L70.2378 303.704H72.7337L64.9897 323H58.5257ZM63.9337 318.648L65.5657 313.976H76.5098L78.1418 318.648H63.9337ZM97.6055 323.448C95.8348 323.448 94.1922 323.171 92.6775 322.616C91.1842 322.04 89.8828 321.229 88.7735 320.184C87.6855 319.139 86.8322 317.912 86.2135 316.504C85.5948 315.075 85.2855 313.507 85.2855 311.8C85.2855 310.093 85.5948 308.536 86.2135 307.128C86.8322 305.699 87.6855 304.461 88.7735 303.416C89.8828 302.371 91.1842 301.571 92.6775 301.016C94.1922 300.44 95.8348 300.152 97.6055 300.152C99.6748 300.152 101.52 300.515 103.141 301.24C104.784 301.965 106.149 303.011 107.237 304.376L103.205 308.024C102.48 307.171 101.68 306.52 100.806 306.072C99.9522 305.624 98.9922 305.4 97.9255 305.4C97.0082 305.4 96.1655 305.549 95.3975 305.848C94.6295 306.147 93.9682 306.584 93.4135 307.16C92.8802 307.715 92.4535 308.387 92.1335 309.176C91.8348 309.965 91.6855 310.84 91.6855 311.8C91.6855 312.76 91.8348 313.635 92.1335 314.424C92.4535 315.213 92.8802 315.896 93.4135 316.472C93.9682 317.027 94.6295 317.453 95.3975 317.752C96.1655 318.051 97.0082 318.2 97.9255 318.2C98.9922 318.2 99.9522 317.976 100.806 317.528C101.68 317.08 102.48 316.429 103.205 315.576L107.237 319.224C106.149 320.568 104.784 321.613 103.141 322.36C101.52 323.085 99.6748 323.448 97.6055 323.448ZM125.191 319.416V304.184H130.119V319.416H125.191ZM119.751 314.136V309.464H135.527V314.136H119.751ZM141.408 323V302.872L144.128 305.496H137.248V300.6H147.744V323H141.408Z" fill="white"/>
<path d="M253.24 238V215.6H264.696C267.64 215.6 269.837 216.144 271.288 217.232C272.739 218.299 273.464 219.707 273.464 221.456C273.464 222.608 273.155 223.621 272.536 224.496C271.939 225.349 271.085 226.032 269.976 226.544C268.888 227.035 267.587 227.28 266.072 227.28L266.712 225.744C268.291 225.744 269.667 225.989 270.84 226.48C272.013 226.949 272.92 227.643 273.56 228.56C274.221 229.456 274.552 230.555 274.552 231.856C274.552 233.797 273.763 235.312 272.184 236.4C270.627 237.467 268.344 238 265.336 238H253.24ZM259.512 233.424H264.824C265.912 233.424 266.733 233.243 267.288 232.88C267.864 232.496 268.152 231.92 268.152 231.152C268.152 230.384 267.864 229.819 267.288 229.456C266.733 229.072 265.912 228.88 264.824 228.88H259.064V224.496H263.864C264.931 224.496 265.731 224.315 266.264 223.952C266.797 223.589 267.064 223.045 267.064 222.32C267.064 221.595 266.797 221.061 266.264 220.72C265.731 220.357 264.931 220.176 263.864 220.176H259.512V233.424ZM275.526 238L285.414 215.6H291.654L301.574 238H294.982L287.238 218.704H289.734L281.99 238H275.526ZM280.934 233.648L282.566 228.976H293.51L295.142 233.648H280.934ZM314.605 238.448C312.835 238.448 311.192 238.171 309.677 237.616C308.184 237.04 306.883 236.229 305.773 235.184C304.685 234.139 303.832 232.912 303.213 231.504C302.595 230.075 302.285 228.507 302.285 226.8C302.285 225.093 302.595 223.536 303.213 222.128C303.832 220.699 304.685 219.461 305.773 218.416C306.883 217.371 308.184 216.571 309.677 216.016C311.192 215.44 312.835 215.152 314.605 215.152C316.675 215.152 318.52 215.515 320.141 216.24C321.784 216.965 323.149 218.011 324.237 219.376L320.205 223.024C319.48 222.171 318.68 221.52 317.806 221.072C316.952 220.624 315.992 220.4 314.925 220.4C314.008 220.4 313.165 220.549 312.397 220.848C311.629 221.147 310.968 221.584 310.413 222.16C309.88 222.715 309.453 223.387 309.133 224.176C308.835 224.965 308.685 225.84 308.685 226.8C308.685 227.76 308.835 228.635 309.133 229.424C309.453 230.213 309.88 230.896 310.413 231.472C310.968 232.027 311.629 232.453 312.397 232.752C313.165 233.051 314.008 233.2 314.925 233.2C315.992 233.2 316.952 232.976 317.806 232.528C318.68 232.08 319.48 231.429 320.205 230.576L324.237 234.224C323.149 235.568 321.784 236.613 320.141 237.36C318.52 238.085 316.675 238.448 314.605 238.448ZM342.191 234.416V219.184H347.119V234.416H342.191ZM336.751 229.136V224.464H352.527V229.136H336.751ZM355.173 238V234.032L363.557 226.192C364.154 225.637 364.591 225.147 364.869 224.72C365.167 224.293 365.359 223.909 365.445 223.568C365.551 223.205 365.605 222.875 365.605 222.576C365.605 221.851 365.359 221.285 364.869 220.88C364.399 220.475 363.685 220.272 362.725 220.272C361.914 220.272 361.157 220.453 360.453 220.816C359.749 221.179 359.173 221.723 358.725 222.448L354.021 219.824C354.853 218.416 356.058 217.285 357.637 216.432C359.215 215.579 361.103 215.152 363.301 215.152C365.029 215.152 366.543 215.429 367.845 215.984C369.146 216.539 370.159 217.328 370.885 218.352C371.631 219.376 372.005 220.581 372.005 221.968C372.005 222.693 371.909 223.419 371.717 224.144C371.525 224.848 371.151 225.605 370.597 226.416C370.063 227.205 369.263 228.091 368.197 229.072L361.541 235.216L360.485 232.976H372.613V238H355.173Z" fill="white"/>
<path d="M485.24 136V113.6H496.696C499.64 113.6 501.837 114.144 503.288 115.232C504.739 116.299 505.464 117.707 505.464 119.456C505.464 120.608 505.155 121.621 504.536 122.496C503.939 123.349 503.085 124.032 501.976 124.544C500.888 125.035 499.587 125.28 498.072 125.28L498.712 123.744C500.291 123.744 501.667 123.989 502.84 124.48C504.013 124.949 504.92 125.643 505.56 126.56C506.221 127.456 506.552 128.555 506.552 129.856C506.552 131.797 505.763 133.312 504.184 134.4C502.627 135.467 500.344 136 497.336 136H485.24ZM491.512 131.424H496.824C497.912 131.424 498.733 131.243 499.288 130.88C499.864 130.496 500.152 129.92 500.152 129.152C500.152 128.384 499.864 127.819 499.288 127.456C498.733 127.072 497.912 126.88 496.824 126.88H491.064V122.496H495.864C496.931 122.496 497.731 122.315 498.264 121.952C498.797 121.589 499.064 121.045 499.064 120.32C499.064 119.595 498.797 119.061 498.264 118.72C497.731 118.357 496.931 118.176 495.864 118.176H491.512V131.424ZM507.526 136L517.414 113.6H523.654L533.574 136H526.982L519.238 116.704H521.734L513.99 136H507.526ZM512.934 131.648L514.566 126.976H525.51L527.142 131.648H512.934ZM546.605 136.448C544.835 136.448 543.192 136.171 541.677 135.616C540.184 135.04 538.883 134.229 537.773 133.184C536.685 132.139 535.832 130.912 535.213 129.504C534.595 128.075 534.285 126.507 534.285 124.8C534.285 123.093 534.595 121.536 535.213 120.128C535.832 118.699 536.685 117.461 537.773 116.416C538.883 115.371 540.184 114.571 541.677 114.016C543.192 113.44 544.835 113.152 546.605 113.152C548.675 113.152 550.52 113.515 552.141 114.24C553.784 114.965 555.149 116.011 556.237 117.376L552.205 121.024C551.48 120.171 550.68 119.52 549.806 119.072C548.952 118.624 547.992 118.4 546.925 118.4C546.008 118.4 545.165 118.549 544.397 118.848C543.629 119.147 542.968 119.584 542.413 120.16C541.88 120.715 541.453 121.387 541.133 122.176C540.835 122.965 540.685 123.84 540.685 124.8C540.685 125.76 540.835 126.635 541.133 127.424C541.453 128.213 541.88 128.896 542.413 129.472C542.968 130.027 543.629 130.453 544.397 130.752C545.165 131.051 546.008 131.2 546.925 131.2C547.992 131.2 548.952 130.976 549.806 130.528C550.68 130.08 551.48 129.429 552.205 128.576L556.237 132.224C555.149 133.568 553.784 134.613 552.141 135.36C550.52 136.085 548.675 136.448 546.605 136.448ZM574.191 132.416V117.184H579.119V132.416H574.191ZM568.751 127.136V122.464H584.527V127.136H568.751ZM594.726 136.448C593.169 136.448 591.611 136.256 590.054 135.872C588.518 135.488 587.174 134.944 586.022 134.24L588.326 129.472C589.222 130.069 590.214 130.528 591.302 130.848C592.411 131.168 593.489 131.328 594.534 131.328C595.622 131.328 596.486 131.125 597.126 130.72C597.766 130.315 598.086 129.739 598.086 128.992C598.086 128.331 597.819 127.808 597.286 127.424C596.753 127.019 595.878 126.816 594.662 126.816H592.006V122.816L598.022 116.32L598.63 118.496H587.174V113.6H603.366V117.568L597.35 124.064L594.246 122.304H595.974C598.769 122.304 600.881 122.933 602.31 124.192C603.761 125.429 604.486 127.029 604.486 128.992C604.486 130.272 604.134 131.477 603.43 132.608C602.747 133.739 601.691 134.667 600.262 135.392C598.833 136.096 596.987 136.448 594.726 136.448Z" fill="white"/>
<defs>
<linearGradient id="paint0_linear_629_3729" x1="91.5" y1="246" x2="91.5" y2="488" gradientUnits="userSpaceOnUse">
<stop stop-color="#031059"/>
<stop offset="1" stop-color="#6C7BAB"/>
</linearGradient>
<linearGradient id="paint1_linear_629_3729" x1="312.5" y1="136" x2="312.5" y2="488" gradientUnits="userSpaceOnUse">
<stop stop-color="#031059"/>
<stop offset="1" stop-color="#6C7BAB"/>
</linearGradient>
<linearGradient id="paint2_linear_629_3729" x1="544.5" y1="25" x2="544.5" y2="488" gradientUnits="userSpaceOnUse">
<stop stop-color="#031059"/>
<stop offset="1" stop-color="#6C7BAB"/>
</linearGradient>
</defs>
</svg>
