<svg width="386" height="386" viewBox="0 0 386 386" fill="none" xmlns="http://www.w3.org/2000/svg">
<path d="M29.0722 118.557L34.3642 127.697C35.4639 129.622 37.0447 131.134 38.9003 132.234L57.8007 99.5188H20C20 101.649 20.5498 103.78 21.6495 105.704L29.0722 118.557Z" fill="#0066DA"/>
<path d="M80 61.0306L61.0996 28.3158C59.244 29.4155 57.6632 30.9275 56.5636 32.8519L21.6495 93.333C20.57 95.2159 20.0014 97.3482 20 99.5185H57.8007L80 61.0306Z" fill="#00AC47"/>
<path d="M121.1 132.234C122.956 131.134 124.536 129.622 125.636 127.697L127.835 123.917L138.351 105.704C139.45 103.78 140 101.649 140 99.5188H102.197L110.241 115.326L121.1 132.234Z" fill="#EA4335"/>
<path d="M79.9999 61.0309L98.9003 28.3162C97.0446 27.2165 94.914 26.6667 92.7147 26.6667H67.2852C65.0859 26.6667 62.9553 27.2852 61.0996 28.3162L79.9999 61.0309Z" fill="#00832D"/>
<path d="M102.199 99.5188H57.8007L38.9004 132.234C40.7561 133.333 42.8866 133.883 45.086 133.883H114.914C117.113 133.883 119.244 133.264 121.1 132.234L102.199 99.5188Z" fill="#2684FC"/>
<path d="M120.893 63.0924L103.436 32.8519C102.337 30.9275 100.756 29.4155 98.9003 28.3158L80 61.0306L102.199 99.5185H139.931C139.931 97.388 139.381 95.2574 138.282 93.333L120.893 63.0924Z" fill="#FFBA00"/>
<path d="M316.907 20H270.541C266.183 20 262.362 23.8158 262.362 28.1837V131.816C262.362 136.179 266.178 140 270.546 140H341.454C345.817 140 349.637 136.184 349.637 131.816V52.7251L330.548 39.0888L316.907 20Z" fill="#4285F4"/>
<path d="M284.178 107.27H327.813V101.818H284.183L284.178 107.27ZM284.178 118.18H316.903V112.728H284.178V118.18ZM284.178 79.9976V85.4502H327.813V79.9976H284.178ZM284.178 96.3602H327.813V90.9076H284.183L284.178 96.3602Z" fill="#F1F1F1"/>
<path d="M316.907 20V44.5462C316.907 48.9092 320.723 52.7251 325.086 52.7251H349.632L316.907 20Z" fill="#A1C2FA"/>
<path d="M90.8984 246H44.54C40.04 246 36.3584 249.679 36.3584 254.179V357.821C36.3584 362.321 40.0376 366 44.5376 366H115.436C119.936 366 123.615 362.321 123.615 357.821V278.719L104.514 265.078L90.8984 246Z" fill="#F4B400"/>
<path d="M97.7192 300.54H62.2808C60.0296 300.54 58.1792 302.39 58.1792 304.642V340.102C58.1792 342.353 60.0296 344.203 62.2808 344.203H97.7408C99.992 344.203 101.842 342.353 101.842 340.102V304.642C101.821 302.39 99.968 300.54 97.7192 300.54ZM96.3584 331.898H63.6416V312.797H96.3608V331.898H96.3584Z" fill="#F1F1F1"/>
<path d="M93.313 276.329L123.642 306.655V278.719L93.313 276.329Z" fill="url(#paint0_linear_737_3656)"/>
<path d="M90.9043 246.01V270.55C90.9043 275.074 94.5595 278.729 99.0835 278.729H123.624L90.9043 246.01Z" fill="#FADA80"/>
<path d="M90.8984 246V246.679L122.96 278.719H123.642L90.8984 246Z" fill="white" fill-opacity="0.1"/>
<path d="M44.54 246C40.04 246 36.3584 249.679 36.3584 254.179V254.858C36.3584 250.358 40.0376 246.679 44.5376 246.679H90.896V246H44.54Z" fill="white" fill-opacity="0.2"/>
<path d="M115.46 365.321H44.54C40.04 365.321 36.3608 361.642 36.3608 357.142V357.821C36.3608 362.321 40.04 366 44.54 366H115.438C119.938 366 123.618 362.321 123.618 357.821V357.142C123.642 361.642 119.96 365.321 115.46 365.321Z" fill="#BF360C" fill-opacity="0.2"/>
<path d="M99.1016 278.719C94.5776 278.719 90.9224 275.064 90.9224 270.54V271.219C90.9224 275.743 94.5776 279.398 99.1016 279.398H123.642V278.719H99.1016Z" fill="#BF360C" fill-opacity="0.1"/>
<path d="M90.8984 246H44.54C40.04 246 36.3584 249.679 36.3584 254.179V357.821C36.3584 362.321 40.0376 366 44.5376 366H115.436C119.936 366 123.615 362.321 123.615 357.821V278.719L90.8984 246Z" fill="url(#paint1_radial_737_3656)"/>
<rect x="270.5" y="243.75" width="106.5" height="124.5" rx="2" fill="#2FB776"/>
<path d="M270.5 337.125H377V366.25C377 367.355 376.105 368.25 375 368.25H272.5C271.395 368.25 270.5 367.355 270.5 366.25V337.125Z" fill="url(#paint2_linear_737_3656)"/>
<rect x="323.75" y="306" width="53.25" height="31.125" fill="#229C5B"/>
<rect x="323.75" y="274.875" width="53.25" height="31.125" fill="#27AE68"/>
<path d="M270.5 245.75C270.5 244.645 271.395 243.75 272.5 243.75H323.75V274.875H270.5V245.75Z" fill="#1D854F"/>
<rect x="270.5" y="274.875" width="53.25" height="31.125" fill="#197B43"/>
<rect x="270.5" y="306" width="53.25" height="31.125" fill="#1B5B38"/>
<path d="M270.5 277.875C270.5 276.218 271.843 274.875 273.5 274.875H320.75C322.407 274.875 323.75 276.218 323.75 277.875V351.911C323.75 353.568 322.407 354.911 320.75 354.911H270.5V277.875Z" fill="black" fill-opacity="0.3"/>
<rect x="235" y="265.982" width="79.875" height="80.0357" rx="2" fill="url(#paint3_linear_737_3656)"/>
<path d="M292.687 328.232L280.183 305.555L292.139 283.768H282.379L274.998 297.679L267.74 283.768H257.675L269.692 305.555L257.188 328.232H266.947L274.816 313.495L282.623 328.232H292.687Z" fill="white"/>
<defs>
<linearGradient id="paint0_linear_737_3656" x1="108.477" y1="278.942" x2="108.477" y2="306.67" gradientUnits="userSpaceOnUse">
<stop stop-color="#BF360C" stop-opacity="0.2"/>
<stop offset="1" stop-color="#BF360C" stop-opacity="0.02"/>
</linearGradient>
<radialGradient id="paint1_radial_737_3656" cx="0" cy="0" r="1" gradientUnits="userSpaceOnUse" gradientTransform="translate(39.1296 249.253) scale(140.727 140.727)">
<stop stop-color="white" stop-opacity="0.1"/>
<stop offset="1" stop-color="white" stop-opacity="0"/>
</radialGradient>
<linearGradient id="paint2_linear_737_3656" x1="270.5" y1="352.687" x2="377" y2="352.688" gradientUnits="userSpaceOnUse">
<stop stop-color="#163C27"/>
<stop offset="1" stop-color="#2A6043"/>
</linearGradient>
<linearGradient id="paint3_linear_737_3656" x1="235" y1="306" x2="314.875" y2="306" gradientUnits="userSpaceOnUse">
<stop stop-color="#185A30"/>
<stop offset="1" stop-color="#176F3D"/>
</linearGradient>
</defs>
</svg>
