<svg width="375" height="229" viewBox="0 0 375 229" fill="none" xmlns="http://www.w3.org/2000/svg">
<g clip-path="url(#clip0_356_2703)">
<path d="M60.6416 231.078C103.854 230.431 139.208 167.525 226.783 165.521C314.358 163.517 348.487 79.9611 392.925 78.5012" stroke="#EFC270" stroke-width="2"/>
<path d="M138.342 243.29C175.517 237.015 197.721 121.902 259.196 121.639C320.671 121.376 347.958 180.286 380.05 181.179" stroke="#EFC270" stroke-width="2"/>
<path d="M16.6666 248.728C65.775 247.434 103.25 162.166 202.012 159.195C300.775 156.224 337.696 62.4197 387.358 60.7251" stroke="#EFC270" stroke-width="2"/>
<path d="M171.254 236.133C196.687 234.696 187.662 180.824 263.496 176.92C339.329 173.015 397.571 67.1829 447.975 64.7097" stroke="#EFC270" stroke-width="2"/>
<path d="M60.3208 253.841C114.654 243.708 145.271 71.156 234.392 70.532C323.517 69.908 362.704 147.419 408.467 148.392" stroke="#EFC270" stroke-width="2"/>
</g>
<defs>
<clipPath id="clip0_356_2703">
<rect width="375" height="229" fill="white"/>
</clipPath>
</defs>
</svg>
