<svg width="1439" height="400" viewBox="0 0 1439 400" fill="none" xmlns="http://www.w3.org/2000/svg">
<g clip-path="url(#clip0_119_926)">
<path d="M684.54 403.63C788.25 402.5 873.1 292.62 1083.28 289.12C1293.46 285.62 1375.37 139.67 1482.02 137.12" stroke="#EFC270" stroke-width="2"/>
<path d="M871.02 424.96C960.24 414 1013.53 212.93 1161.07 212.47C1308.61 212.01 1374.1 314.91 1451.12 316.47" stroke="#EFC270" stroke-width="2"/>
<path d="M579 434.46C696.86 432.2 786.8 283.26 1023.83 278.07C1260.86 272.88 1349.47 109.03 1468.66 106.07" stroke="#EFC270" stroke-width="2"/>
<path d="M950.01 412.46C1011.05 409.95 989.39 315.85 1171.39 309.03C1353.39 302.21 1493.17 117.35 1614.14 113.03" stroke="#EFC270" stroke-width="2"/>
<path d="M683.77 443.39C814.17 425.69 887.65 124.29 1101.54 123.2C1315.44 122.11 1409.49 257.5 1519.32 259.2" stroke="#EFC270" stroke-width="2"/>
</g>
<defs>
<clipPath id="clip0_119_926">
<rect width="1439" height="400" fill="white"/>
</clipPath>
</defs>
</svg>
