<svg width="385" height="353" viewBox="0 0 385 353" fill="none" xmlns="http://www.w3.org/2000/svg">
<path d="M341 28.25H365L305 131.75L245 28.25H268.7H290.9L305 52.25L318.8 28.25H341Z" fill="#41B883"/>
<path d="M245 28.25L305 131.75L365 28.25H341L305 90.35L268.7 28.25H245Z" fill="#41B883"/>
<path d="M268.7 28.25L305 90.65L341 28.25H318.8L305 52.25L290.9 28.25H268.7Z" fill="#35495E"/>
<path d="M20.7378 33.3594H114.412V126.641H20.7378V33.3594Z" fill="#F7DF1E"/>
<path d="M115.275 127.5H19.875V32.5H115.275V127.5ZM21.6667 125.705H113.482V34.295H21.6667V125.705Z" fill="#EEEEEE"/>
<path d="M83.7673 106.574C85.6584 109.682 88.119 111.966 92.4716 111.966C96.1276 111.966 98.4629 110.127 98.4629 107.587C98.4629 104.543 96.064 103.464 92.0393 101.693L89.8342 100.741C83.4672 98.012 79.2378 94.592 79.2378 87.363C79.2378 80.704 84.2791 75.635 92.1595 75.635C97.7693 75.635 101.803 77.6 104.709 82.744L97.8378 87.183C96.3253 84.453 94.6936 83.378 92.1595 83.378C89.5748 83.378 87.9371 85.028 87.9371 87.183C87.9371 89.846 89.5768 90.925 93.362 92.575L95.5681 93.526C103.065 96.761 107.297 100.059 107.297 107.474C107.297 115.467 101.058 119.847 92.6763 119.847C84.4818 119.847 79.1881 115.918 76.5974 110.768C76.5974 110.766 83.7673 106.574 83.7673 106.574ZM115.596 106.574C117.487 109.682 119.948 111.966 124.3 111.966C127.956 111.966 130.292 110.127 130.292 107.587C130.292 104.543 127.893 103.464 123.868 101.693L121.663 100.741C115.296 98.012 111.067 94.592 111.067 87.363C111.067 80.704 116.108 75.635 123.988 75.635C129.598 75.635 133.632 77.6 136.537 82.744L129.667 87.183C128.154 84.453 126.522 83.378 123.988 83.378C121.404 83.378 119.766 85.028 119.766 87.183C119.766 89.846 121.406 90.925 125.191 92.575L127.397 93.526C134.893 96.76 139.125 100.058 139.125 107.473C139.125 115.466 132.885 119.846 124.504 119.846C116.31 119.846 111.016 115.917 108.425 110.767L115.596 106.574ZM52.5993 107.344C53.9856 109.819 55.2467 111.911 58.2776 111.911C61.1764 111.911 63.0049 110.77 63.0049 106.332V76.141H71.8274V106.451C71.8274 115.644 66.4711 119.829 58.6523 119.829C51.5877 119.829 47.4964 116.15 45.4155 111.719L52.5993 107.344C52.5993 107.344 52.5993 107.343 52.5993 107.344Z" fill="black"/>
<path d="M126.436 233.289L117.884 329.093L79.4423 339.75L41.1069 329.108L32.564 233.289H126.436Z" fill="#E44D26"/>
<path d="M79.5 331.604L110.562 322.992L117.871 241.124H79.5V331.604Z" fill="#F16529"/>
<path d="M79.4995 264.628H62.8749L63.9489 276.662H79.4995V288.413H53.2014L50.0317 252.876H79.4995V264.628Z" fill="#F1F1F1"/>
<path d="M53.7268 294.289H65.5237L66.3603 303.662L79.4483 307.196L79.4998 307.182V319.409L79.4457 319.424L55.3732 312.741L53.7268 294.289Z" fill="#F1F1F1"/>
<path d="M47.2702 207.25H41.2983V225.118H47.2704V219.135H52.7335V225.118H58.7055V207.25H52.7332V213.15H47.2702V207.25Z" fill="black"/>
<path d="M61.3014 213.175H66.559L66.5592 225.118H72.5316V213.175H77.7914V207.25H61.3014V213.175Z" fill="black"/>
<path d="M80.4086 207.25H86.6358L90.4664 213.528L94.2931 207.25H100.523V225.118H94.5752V216.262L90.4664 222.615H90.3637L86.252 216.262V225.118H80.4086V207.25Z" fill="black"/>
<path d="M109.469 207.25H103.495V225.118H117.867V219.212H109.469V207.25Z" fill="black"/>
<path d="M79.459 264.628V252.876H108.897L107.845 264.628H79.459Z" fill="white"/>
<path d="M93.93 288.413H79.459V276.662H106.776L106.489 279.817L103.551 312.741L79.459 319.418V307.192L92.5659 303.654L93.93 288.413Z" fill="white"/>
<path d="M304.948 333.125L270.229 323.547L262.492 237.31H347.508L339.763 323.534L304.948 333.125Z" fill="#264DE4"/>
<path d="M333.132 318.043L339.751 244.362H305V325.794L333.132 318.043Z" fill="#2965F1"/>
<path d="M280.229 276.345L281.183 286.922H305V276.345H280.229Z" fill="#F1F1F1"/>
<path d="M278.312 254.938L279.28 265.515H305V254.938H278.312Z" fill="#F1F1F1"/>
<path d="M305 303.814L304.953 303.826L293.1 300.646L292.342 292.21H281.658L283.149 308.817L304.951 314.832L305 314.818V303.814Z" fill="#F1F1F1"/>
<path d="M282.5 213.875H295.391V219.232H287.891V224.589H295.391V229.946H282.5V213.875Z" fill="black"/>
<path d="M297.969 213.875H310.859V218.533H303.359V219.465H310.859V230.179H297.969V225.288H305.469V224.356H297.969V213.875Z" fill="black"/>
<path d="M313.438 213.875H326.328V218.533H318.828V219.465H326.328V230.179H313.438V225.288H320.937V224.356H313.438V213.875Z" fill="black"/>
<path d="M329.703 276.345L331.624 254.938H304.963V265.515H319.961L318.992 276.345H304.963V286.922H318.069L316.834 300.639L304.963 303.823V314.826L326.782 308.817L326.942 307.03L329.443 279.186L329.703 276.345Z" fill="white"/>
</svg>
