<svg width="1440" height="4178" viewBox="0 0 1440 4178" fill="none" xmlns="http://www.w3.org/2000/svg">
<path d="M98.0231 2098.79C398.046 1690.3 243.545 -230.66 655.14 149.185C1066.73 529.031 760.294 3183.41 933.698 4178" stroke="#EFC270" stroke-opacity="0.35" stroke-width="2"/>
<path d="M64.02 1473.66C391.693 1904.43 229.651 3156.99 676.806 3550.42C1123.96 3943.85 900.818 3670 983.204 3672.2" stroke="#EFC270" stroke-opacity="0.35" stroke-width="2"/>
<path d="M67.9698 1429.01C302.02 1159.18 72.894 -344.776 518.238 72.7585C963.582 490.293 696.916 2827.07 968.506 3699.33" stroke="#EFC270" stroke-opacity="0.35" stroke-width="2"/>
<path d="M-1 1120.67C228.423 997.647 113.463 -286.626 540.105 230.635C966.748 747.895 643.078 2829.53 810.658 3677.47" stroke="#EFC270" stroke-opacity="0.35" stroke-width="2"/>
<path d="M31.5205 568.235C314.283 693.179 42.0465 945.717 735.26 1585.42C1428.47 2225.13 1059.3 3547.97 1439 4069.93" stroke="#EFC270" stroke-opacity="0.35" stroke-width="2"/>
</svg>
