<svg width="200" height="229" viewBox="0 0 200 229" fill="none" xmlns="http://www.w3.org/2000/svg">
<path d="M199.95 114.694C199.95 132.927 199.913 151.152 200 169.385C200.007 171.256 199.416 172.303 197.838 173.192C187.766 178.899 177.722 184.663 167.678 190.428C150.868 200.085 134.073 209.757 117.271 219.422C111.953 222.484 106.607 225.502 101.311 228.592C100.367 229.144 99.6685 229.13 98.7247 228.585C88.2484 222.519 77.7505 216.49 67.2599 210.467C54.55 203.168 41.8258 195.877 29.1159 188.578C19.8501 183.265 10.5987 177.938 1.32574 172.647C0.324231 172.088 0 171.364 0 170.231C0.0288205 133.106 0.0288205 95.9813 0 58.8565C0 57.652 0.381872 56.9566 1.43382 56.3471C15.9954 48.0159 30.5281 39.6489 45.0681 31.289C57.1223 24.3631 69.1764 17.4371 81.2234 10.504C87.0668 7.14862 92.9101 3.80036 98.7319 0.409093C99.7118 -0.157314 100.454 -0.128635 101.463 0.452111C111.406 6.24523 121.378 11.9882 131.364 17.7096C148.217 27.3672 165.091 36.9889 181.944 46.6394C187.47 49.8012 192.961 53.0276 198.494 56.1751C199.596 56.7988 199.978 57.566 199.978 58.835C199.935 77.4548 199.95 96.0745 199.95 114.687V114.694ZM111.132 115.418C112.342 120.086 113.481 124.395 114.569 128.718C116.593 136.784 118.589 144.857 120.599 152.93C122.415 160.222 124.18 167.528 126.09 174.798C126.378 175.88 127.113 177.099 128.014 177.73C130.391 179.401 132.963 178.261 134.332 175.207C140.255 161.928 146.185 148.657 152.107 135.386C156.027 126.603 159.939 117.82 163.83 109.023C164.781 106.865 164.356 104.958 162.807 103.782C161.287 102.628 159.125 102.757 157.288 104.205C151.409 108.829 145.558 113.483 139.686 118.121C136.768 120.43 133.835 122.717 130.91 125.019C132.135 120.602 133.59 116.393 135.024 112.17C137.726 104.234 140.421 96.2896 143.115 88.3456C145.018 82.746 146.941 77.1608 148.8 71.5541C149.766 68.6432 148.714 66.3561 146.214 65.6964C144.283 65.1874 142.899 66.0693 141.696 67.4674C133.684 76.7952 125.657 86.1086 117.638 95.4292C116.939 96.2394 116.226 97.0424 115.354 98.0318C115.073 97.365 114.85 96.9922 114.749 96.5907C113.012 89.6289 111.305 82.6528 109.554 75.6982C107.709 68.3492 105.843 61.0075 103.934 53.68C103.408 51.6582 102.01 50.597 100.144 50.5612C98.3428 50.5253 96.664 51.78 96.1524 53.7302C94.8339 58.7562 93.5586 63.7893 92.2977 68.8296C89.8912 78.4585 87.5063 88.0874 85.0349 98.0533C84.4297 97.4654 83.9902 97.0998 83.6227 96.6696C75.8772 87.6931 68.1389 78.7095 60.4006 69.7258C59.4927 68.679 58.6209 67.5964 57.6266 66.6357C56.2576 65.3093 54.2546 65.1874 52.7055 66.2127C51.1852 67.2093 50.544 69.1236 51.1276 70.8801C51.5815 72.2424 52.021 73.6118 52.4822 74.9669C54.9247 82.1724 57.3888 89.3708 59.8098 96.5835C62.0578 103.28 64.2697 109.984 66.4961 116.687C67.3824 119.369 68.2686 122.05 69.1548 124.725C65.6747 122.402 62.5117 119.899 59.3486 117.383C53.8367 113.002 48.3392 108.607 42.8201 104.234C40.8819 102.699 38.9725 102.606 37.3658 103.897C35.7302 105.209 35.4997 107.08 36.6381 109.625C43.9297 125.908 51.2141 142.183 58.4984 158.465C61.0635 164.208 63.6069 169.965 66.1791 175.701C67.0437 177.63 68.4631 178.483 70.3581 178.311C72.253 178.139 73.3842 177.049 73.9102 174.956C76.0717 166.381 78.2477 157.813 80.402 149.238C82.9166 139.222 85.4096 129.206 87.9314 119.19C88.2268 117.999 88.6087 116.838 89.041 115.339C91.6708 118.387 94.0485 121.147 96.4406 123.893C98.8976 126.711 101.448 126.675 103.848 123.857C106.175 121.118 108.531 118.415 111.125 115.404L111.132 115.418Z" fill="#2C2C2C"/>
<path d="M100.072 115.777C97.1972 112.429 94.4737 109.31 91.8438 106.119C91.5412 105.754 91.5916 104.944 91.7285 104.399C93.9333 95.5656 96.1813 86.7397 98.4149 77.9066C98.912 75.9493 99.402 73.9848 99.8919 72.0203C100.036 72.0203 100.18 72.0203 100.324 72.0274C100.764 73.741 101.21 75.4474 101.643 77.1609C103.948 86.3669 106.254 95.5656 108.516 104.779C108.632 105.238 108.531 105.933 108.243 106.277C105.613 109.41 102.911 112.486 100.072 115.77V115.777Z" fill="#2C2C2C"/>
<path d="M68.6793 161.606C62.699 148.22 56.7188 134.834 50.7385 121.455C50.8682 121.348 50.9907 121.233 51.1204 121.125C52.4678 122.187 53.8223 123.241 55.1625 124.309C61.2652 129.177 67.3535 134.074 73.4923 138.899C74.393 139.609 74.5082 140.233 74.2344 141.287C72.4764 147.998 70.7976 154.737 69.09 161.462C68.9531 161.505 68.8162 161.555 68.6793 161.598V161.606Z" fill="#2C2C2C"/>
<path d="M131.155 161.434C130.564 159.161 129.973 156.895 129.397 154.622C128.352 150.507 127.343 146.384 126.277 142.269C125.6 139.666 125.6 139.616 127.696 137.96C134.404 132.676 141.105 127.378 147.806 122.093C148.238 121.756 148.678 121.427 149.434 121.276C143.468 134.64 137.51 148.012 131.544 161.376C131.414 161.398 131.285 161.412 131.155 161.434Z" fill="#2C2C2C"/>
<path d="M77.9667 125.685C73.7733 113.138 69.7024 100.957 65.6315 88.7687C65.7468 88.7113 65.8621 88.6611 65.9702 88.6038C68.7874 91.8445 71.6046 95.0852 74.4146 98.3259C76.7346 101.007 79.0115 103.725 81.3747 106.363C82.2105 107.302 82.5852 108.113 82.2249 109.446C80.8776 114.4 79.7031 119.405 78.4495 124.388C78.3702 124.696 78.2261 124.983 77.9667 125.678V125.685Z" fill="#2C2C2C"/>
<path d="M134.376 88.9048C130.319 100.735 126.263 112.558 122.206 124.388C122.076 124.373 121.94 124.359 121.81 124.345C120.873 120.638 119.937 116.938 119.007 113.232C118.964 113.074 118.993 112.88 118.921 112.744C117.047 109.116 118.452 106.485 121.068 103.732C125.369 99.2005 129.289 94.3108 133.36 89.5644C133.605 89.2776 133.77 88.9335 133.972 88.6108C134.109 88.7112 134.239 88.8116 134.376 88.9048Z" fill="#2C2C2C"/>
</svg>
